<svg xmlns="http://www.w3.org/2000/svg" xmlns:xlink="http://www.w3.org/1999/xlink" version="1.1" x="0px" y="0px" width="20px" height="20px" viewBox="0 0 100 100" xml:space="preserve">
    <g>
        <path fill="rgba(255,255,255,0.5)" d="M65.5,22.2H36.1c-7.2,0-13.1,5.9-13.1,13.1v29.4c0,7.2,5.9,13.1,13.1,13.1h29.4c7.2,0,13.1-5.9,13.1-13.1V35.3   C78.6,28.1,72.7,22.2,65.5,22.2z M50.8,67.2c-9.5,0-17.2-7.7-17.2-17.2c0-9.5,7.7-17.2,17.2-17.2C60.3,32.8,68,40.5,68,50   C68,59.5,60.3,67.2,50.8,67.2z M68.4,36.9c-2.5,0-4.4-2-4.4-4.4c0-2.5,2-4.4,4.4-4.4s4.4,2,4.4,4.4C72.9,34.9,70.9,36.9,68.4,36.9z" />
        <path fill="rgba(255,255,255,0.5)" d="M50.8,38.3c-6.5,0-11.7,5.3-11.7,11.7c0,6.5,5.3,11.7,11.7,11.7c6.5,0,11.7-5.3,11.7-11.7C62.5,43.5,57.3,38.3,50.8,38.3z" />
        <path fill="rgba(255,255,255,0.5)" d="M71.5,5.1H30.1C16.7,5.1,5.9,15.9,5.9,29.3v41.4c0,13.4,10.8,24.2,24.2,24.2h41.4c13.4,0,24.2-10.8,24.2-24.2V29.3   C95.7,15.9,84.9,5.1,71.5,5.1z M84,64.7c0,10.2-8.3,18.5-18.5,18.5H36.1c-10.2,0-18.5-8.3-18.5-18.5V35.3   c0-10.2,8.3-18.5,18.5-18.5h29.4c10.2,0,18.5,8.3,18.5,18.5V64.7z" />
    </g>
</svg>
