<svg xmlns="http://www.w3.org/2000/svg" xmlns:xlink="http://www.w3.org/1999/xlink" version="1.1" x="0px" y="0px" viewBox="0 0 100 125" enable-background="new 0 0 100 100" xml:space="preserve">
    <g>
        <path fill="rgba(255,255,255,0.7)" d="M38.632,73.233c0.649-0.244,1.225-0.657,1.665-1.194l27.799-33.88c0.671-0.817,0.983-1.847,0.879-2.9   c-0.104-1.052-0.611-2.002-1.429-2.672L50.59,18.674c-1.09-0.894-2.587-1.141-3.907-0.644c-0.649,0.244-1.225,0.657-1.665,1.194   l-27.799,33.88c-0.671,0.817-0.983,1.847-0.879,2.9c0.104,1.052,0.611,2.002,1.429,2.672l16.956,13.913   C35.814,73.483,37.312,73.73,38.632,73.233z M19.526,54.997l27.799-33.88c0.112-0.137,0.254-0.235,0.409-0.294   c0.315-0.119,0.683-0.07,0.962,0.158l16.956,13.913c0.416,0.341,0.476,0.955,0.135,1.371l-27.799,33.88   c-0.112,0.137-0.254,0.235-0.409,0.294c-0.315,0.119-0.683,0.07-0.962-0.158L19.662,56.368   C19.246,56.027,19.185,55.413,19.526,54.997z" />
        <path fill="#fff" d="M35.726,51.871l5.566-1.194c0.22-0.024,0.437,0.061,0.582,0.228l3.181,4.617   c0.23,0.265,0.571,0.322,0.854,0.215c0.124-0.047,0.236-0.125,0.323-0.23c0.075-0.091,0.131-0.203,0.157-0.334l0.581-5.599   c0.022-0.108,0.07-0.207,0.139-0.29c0.068-0.083,0.156-0.15,0.258-0.193l5.377-1.663c0.123-0.052,0.222-0.128,0.297-0.22   c0.284-0.346,0.223-0.908-0.216-1.157l-5.149-2.218c-0.192-0.109-0.318-0.306-0.337-0.526l0.084-5.692   c-0.045-0.531-0.584-0.826-1.035-0.656c-0.088,0.033-0.172,0.084-0.249,0.154l-3.705,4.276c-0.064,0.058-0.137,0.103-0.216,0.132   c-0.123,0.046-0.258,0.056-0.389,0.026l-5.384-1.903c-0.158-0.037-0.31-0.023-0.444,0.027c-0.128,0.048-0.24,0.13-0.325,0.234   c-0.174,0.212-0.237,0.515-0.106,0.805l2.918,4.909c0.091,0.201,0.077,0.435-0.037,0.624l-3.47,4.468   C34.654,51.256,35.093,51.942,35.726,51.871z" />
        <path fill="#fff" d="M93.457,49.124l-10.51-19.327c-0.596-1.096-1.74-1.795-2.988-1.827c-0.612-0.016-1.22,0.131-1.759,0.424   c-0.685,0.372-1.44,0.584-2.209,0.643c0.136-0.988,0.526-1.925,1.175-2.716c1.217-1.485,1.001-3.684-0.484-4.901L59.758,7.533   c-0.959-0.787-2.276-1.004-3.438-0.566c-0.57,0.214-1.075,0.577-1.463,1.049c-0.61,0.743-1.404,1.313-2.296,1.65   c-1.827,0.688-3.898,0.347-5.406-0.89c-0.959-0.787-2.276-1.004-3.438-0.566c-0.57,0.215-1.076,0.576-1.464,1.049L6.906,52.338   c-1.217,1.485-1,3.684,0.484,4.902c1.13,0.928,1.831,2.239,1.975,3.693c0.144,1.455-0.288,2.879-1.216,4.009   c-1.217,1.485-1.001,3.684,0.484,4.901l7.025,5.764L22.3,87.821c0.596,1.096,1.74,1.795,2.988,1.827   c0.612,0.016,1.22-0.131,1.759-0.424c0.848-0.461,1.803-0.693,2.762-0.668c1.962,0.05,3.761,1.15,4.697,2.872   c0.595,1.095,1.74,1.795,2.988,1.827c0.612,0.016,1.22-0.131,1.759-0.424l49.196-26.754c1.694-0.923,2.324-3.052,1.402-4.747   c-0.702-1.291-0.859-2.777-0.443-4.186c0.416-1.409,1.356-2.572,2.647-3.273C93.75,52.948,94.38,50.819,93.457,49.124z    M10.456,66.835c1.433-1.746,2.1-3.946,1.879-6.195c-0.222-2.248-1.306-4.275-3.052-5.708c-0.212-0.173-0.243-0.489-0.069-0.701   L44.56,11.153c0.175-0.212,0.495-0.238,0.701-0.07c2.329,1.911,5.529,2.438,8.351,1.376c1.382-0.52,2.611-1.402,3.552-2.549   c0.173-0.213,0.495-0.237,0.701-0.07l16.924,13.886c0.212,0.175,0.243,0.489,0.069,0.701c-1.433,1.746-2.1,3.946-1.879,6.195   c0.222,2.248,1.306,4.275,3.052,5.708c0.212,0.173,0.243,0.489,0.069,0.701L40.754,80.109c-0.173,0.213-0.494,0.239-0.701,0.07   c-2.329-1.911-5.529-2.438-8.351-1.376c-1.382,0.52-2.611,1.402-3.552,2.549c-0.172,0.213-0.494,0.238-0.701,0.07L10.525,67.536   C10.313,67.361,10.282,67.047,10.456,66.835z M78.094,57.503c0.258,0.475,0.083,1.069-0.392,1.328L49.485,74.176L72.143,46.56   L78.094,57.503z M90.622,51.236c-1.995,1.084-3.447,2.881-4.091,5.058c-0.643,2.177-0.4,4.475,0.684,6.469   c0.132,0.242,0.042,0.547-0.2,0.679L37.82,90.195c-0.242,0.133-0.55,0.036-0.679-0.2c-1.446-2.66-4.227-4.36-7.256-4.437   c-1.484-0.038-2.961,0.319-4.271,1.031c-0.24,0.134-0.55,0.035-0.679-0.2l-3.111-5.721l3.733,3.063   c0.959,0.787,2.276,1.004,3.438,0.566c0.57-0.215,1.075-0.577,1.463-1.049c0.61-0.742,1.404-1.313,2.296-1.649   c1.827-0.688,3.898-0.347,5.406,0.89c0.959,0.787,2.276,1.004,3.439,0.566c0.57-0.215,1.075-0.577,1.464-1.049l1.363-1.662   l34.71-18.876c0.934-0.508,1.614-1.349,1.915-2.368c0.301-1.019,0.187-2.095-0.32-3.028l-6.532-12.012l4.211-5.133   c1.217-1.485,1-3.684-0.484-4.902c-0.67-0.55-1.167-1.244-1.508-2.014c1.122-0.111,2.218-0.437,3.217-0.98   c0.242-0.133,0.55-0.034,0.679,0.2l10.51,19.327C90.954,50.8,90.864,51.104,90.622,51.236z" />
    </g>
</svg>
